<?xml version="1.0" standalone="yes"?>
<svg xmlns="http://www.w3.org/2000/svg" xmlns:xlink="http://www.w3.org/1999/xlink" xmlns:svg="http://www.w3.org/2000/svg" xmlns:dc="http://purl.org/dc/elements/1.1/" xmlns:cc="http://web.resource.org/cc/" xmlns:rdf="http://www.w3.org/1999/02/22-rdf-syntax-ns#" width="500" height="500">
<path style="fill:#010101; stroke:none;" d="M0 0L0 500L500 500L500 0L0 0z"/>
<path style="fill:#ffffff; stroke:none;" d="M95 19L95 76L113 76L113 57C120.619 57 129.138 58.01 135.985 53.9143C145.97 47.9413 147.221 29.8013 137.895 22.652C127.907 14.9949 106.905 19 95 19M154 19L154 76L172 76L172 19L154 19M184 19L184 76L202 76L202 54C213.598 56.3416 212.381 69.2769 220.634 74.9722C226.545 79.051 242.912 76.0005 250 76C252.697 75.9998 256.985 76.7501 259.272 74.9722C261.484 73.253 261.657 69.5328 262 67L279.722 68.0278L286.225 75.6821L303 76L283 19L259.702 20.0278L253.576 36L241 75L223 51C236.818 49.461 240.756 29.1369 228.985 21.8572C217.879 14.9896 196.587 19 184 19z"/>
<path style="fill:#666666; stroke:none;" d="M221 19L221 20L224 20L221 19z"/>
<path style="fill:#ffffff; stroke:none;" d="M298 19L298 32L316 32L316 76L334 76L334 32L352 32L352 19L298 19M360 19L360 76L408 76L408 63L378 63L378 52L405 52L405 39L378 39L378 32L407 32L407 19L360 19z"/>
<path style="fill:#010101; stroke:none;" d="M113 32L113 44C128.212 43.8741 128.284 32.1265 113 32z"/>
<path style="fill:#666666; stroke:none;" d="M120.667 32.3333L121.333 32.6667L120.667 32.3333z"/>
<path style="fill:#010101; stroke:none;" d="M202 32L202 43C206.148 42.9973 212.129 43.613 215.681 41.0116C219.058 38.5384 217.375 33.9908 213.941 32.6034C210.482 31.2058 205.67 32 202 32M271 34L267 53L277 53L271 34z"/>
<path style="fill:#5c5c5c; stroke:none;" d="M270.333 36.6667L270.667 37.3333L270.333 36.6667z"/>
<path style="fill:#929292; stroke:none;" d="M235 38L235 41L236 41L235 38z"/>
<path style="fill:#6d6d6d; stroke:none;" d="M211 42L211 43L214 43L211 42z"/>
<path style="fill:#626262; stroke:none;" d="M274.333 42.6667L274.667 43.3333L274.333 42.6667z"/>
<path style="fill:#7b7b7b; stroke:none;" d="M120.667 43.3333L121.333 43.6667L120.667 43.3333z"/>
<path style="fill:#6d6d6d; stroke:none;" d="M267.333 47.6667L267.667 48.3333L267.333 47.6667z"/>
<path style="fill:#a2a2a2; stroke:none;" d="M223.333 51.6667L223.667 52.3333L223.333 51.6667z"/>
<path style="fill:#626262; stroke:none;" d="M266.333 51.6667L266.667 52.3333L266.333 51.6667z"/>
<path style="fill:#ffffff; stroke:none;" d="M50 100L50 400L131 400L168.907 399.682L200 377L179 400C186.91 400 198.666 402.181 206 399.026C216.706 394.421 229.341 366.607 222.836 355.26C216.895 344.897 200.056 358.892 198 346L174 351C172.644 346.433 167.468 342.94 167.033 338.17C166.422 331.458 173.181 325.167 172.812 318.961C172.328 310.842 154.043 303.57 169.001 297.66C170.629 297.017 172.311 296.482 173.998 296.019C176.348 295.374 178.577 295.111 181 295L181 294C176.124 293.049 169.47 295.585 165.303 292.258C151.946 281.591 177.958 261.433 186 257C183.41 245.97 195.231 243.202 196 233L189 229L218 233L226 226C218.971 222.617 214.812 225.233 208 227L208 218C201.506 214.17 192.597 211.222 187.39 205.66C181.278 199.131 183.15 188.802 180.073 181.001C175.375 169.089 165.819 156.981 159.089 146C155.43 140.031 150.83 135.317 151 128L148 129C147.601 121.25 154.236 118.983 161 117.63C175.784 114.672 192.888 113.138 208 113.291C240.961 113.624 283.334 125.4 306.576 150.093C326.565 171.332 334.684 199.23 361 214C366.267 198.601 380.386 193.976 395.961 198.404C412.027 202.972 436.606 224.803 441.057 241C450.571 275.617 409.372 305.644 380 310.409C368.509 312.273 353.994 314.089 344.529 305.451C335.476 297.191 340.091 288.497 343.24 279C347.302 266.748 354.458 247.995 351.127 235C346.642 217.506 337.627 208.465 327.989 194C320.235 182.362 313.971 166.366 303.815 156.59C265.438 119.651 205.845 113.127 156 125C161.88 143.46 176.976 159.577 185.447 177C188.788 183.872 187.663 194.031 191.603 199.96C195.096 205.215 205.871 214.054 212 215L211 218C225.153 218 235.534 223.924 248 229.648C269.207 239.386 288.169 249.844 306.711 264.255C315.314 270.941 329.295 282.751 331 294L322 300L322 302L337 315L338 309L347 313L347 315L340 314C339.814 319.738 337.912 322.553 332 323C332.943 343.58 359.809 355.67 377 361L377 363L374 364L374 366L380 369L380 371L359 367C359.498 379.957 343.64 388.663 338 400L380 400C379.797 393.016 376.616 386.185 371.562 381.336C370.732 380.54 366.168 377.419 367.921 375.874C369.336 374.628 371.948 376.863 372.986 377.654C377.717 381.258 382.205 383.776 387 387.067C392.004 390.502 396.473 397.203 402.09 399.397C414.57 404.273 436.569 400 450 400L450 100L50 100z"/>
<path style="fill:#666666; stroke:none;" d="M200.667 113.333L201.333 113.667L200.667 113.333z"/>
<path style="fill:#7b7b7b; stroke:none;" d="M204 113L204 114L208 114L204 113z"/>
<path style="fill:#424242; stroke:none;" d="M209 113L209 114L217 114L209 113z"/>
<path style="fill:#bdbdbd; stroke:none;" d="M181 114L181 115L185 115L181 114z"/>
<path style="fill:#929292; stroke:none;" d="M189 114L189 115L193 115L189 114z"/>
<path style="fill:#626262; stroke:none;" d="M218 114L218 115L223 115L218 114z"/>
<path style="fill:#747474; stroke:none;" d="M235 116L235 117L238 117L235 116z"/>
<path style="fill:#666666; stroke:none;" d="M161 117L161 118L169 118L161 117z"/>
<path style="fill:#8b8b8b; stroke:none;" d="M242 118L242 119L247 119L242 118z"/>
<path style="fill:#828282; stroke:none;" d="M189 119L189 120L199 120L189 119z"/>
<path style="fill:#929292; stroke:none;" d="M207 119L207 120L212 120L207 119z"/>
<path style="fill:#a2a2a2; stroke:none;" d="M186 120L186 121L189 121L186 120z"/>
<path style="fill:#5c5c5c; stroke:none;" d="M249 120L249 121L252 121L249 120z"/>
<path style="fill:#929292; stroke:none;" d="M179 121L179 122L183 122L179 121z"/>
<path style="fill:#868686; stroke:none;" d="M253.667 121.333L254.333 121.667L253.667 121.333z"/>
<path style="fill:#969696; stroke:none;" d="M171 122L171 123L175 123L171 122z"/>
<path style="fill:#7b7b7b; stroke:none;" d="M162 123L162 124L167 124L162 123z"/>
<path style="fill:#666666; stroke:none;" d="M238 123L238 124L241 124L238 123z"/>
<path style="fill:#8b8b8b; stroke:none;" d="M259 123L259 124L262 124L259 123z"/>
<path style="fill:#626262; stroke:none;" d="M242.667 124.333L243.333 124.667L242.667 124.333z"/>
<path style="fill:#929292; stroke:none;" d="M267.667 125.333L268.333 125.667L267.667 125.333z"/>
<path style="fill:#7b7b7b; stroke:none;" d="M271 127L271 128L274 128L271 127z"/>
<path style="fill:#c3c3c3; stroke:none;" d="M150 131L153 138L154 138L150 131z"/>
<path style="fill:#575757; stroke:none;" d="M266 132L266 133L270 133L266 132z"/>
<path style="fill:#929292; stroke:none;" d="M288.667 136.333L289.333 136.667L288.667 136.333z"/>
<path style="fill:#666666; stroke:none;" d="M163.333 138.667L163.667 139.333L163.333 138.667z"/>
<path style="fill:#6d6d6d; stroke:none;" d="M172.333 154.667L172.667 155.333L172.333 154.667z"/>
<path style="fill:#5c5c5c; stroke:none;" d="M174.333 157.667L174.667 158.333L174.333 157.667z"/>
<path style="fill:#a5a5a5; stroke:none;" d="M181 182L181 186L182 186L181 182z"/>
<path style="fill:#5c5c5c; stroke:none;" d="M182 186L182 194L183 194L182 186z"/>
<path style="fill:#868686; stroke:none;" d="M326.333 191.667L326.667 192.333L326.333 191.667z"/>
<path style="fill:#7b7b7b; stroke:none;" d="M388 197L388 198L391 198L388 197z"/>
<path style="fill:#747474; stroke:none;" d="M391 198L391 199L398 199L391 198z"/>
<path style="fill:#868686; stroke:none;" d="M185.333 202.667L185.667 203.333L185.333 202.667z"/>
<path style="fill:#ffffff; stroke:none;" d="M369 219C387.78 224.524 397.125 251.77 383.485 266.815C376.062 275.003 363.044 271.597 363 284C359.071 282.46 354.093 278.947 357.608 274.264C362.734 267.436 374.047 270.584 379.157 262.945C385.007 254.199 382.278 235.274 374.402 228.613C371.239 225.938 366.58 227.061 363.688 224.397C358.556 219.669 360.456 214.257 352 214C353.329 223.664 360.136 231.956 359.946 242C359.692 255.421 354.503 270.792 349.259 283C346.772 288.79 343.659 297.253 349.314 302.487C363.816 315.91 387.439 300.17 402 298C405.74 290.49 415.229 286.501 421.147 280.816C430.013 272.297 430.393 263.24 432.665 252C433.848 246.149 436.315 240.972 433.89 235.09C431.456 229.182 424.217 225.652 419 222.576C407.303 215.678 369.092 187.013 369 219z"/>
<path style="fill:#5c5c5c; stroke:none;" d="M378 204L378 205L387 205L378 204z"/>
<path style="fill:#6d6d6d; stroke:none;" d="M392.667 206.333L393.333 206.667L392.667 206.333z"/>
<path style="fill:#929292; stroke:none;" d="M338.667 207.333L339.333 207.667L338.667 207.333M410.667 207.333L411.333 207.667L410.667 207.333z"/>
<path style="fill:#c3c3c3; stroke:none;" d="M358 215L360 220L361 220L361 214L358 215z"/>
<path style="fill:#adadad; stroke:none;" d="M368 214L368 219L369 219L368 214z"/>
<path style="fill:#6d6d6d; stroke:none;" d="M211.333 215.667L211.667 216.333L211.333 215.667z"/>
<path style="fill:#747474; stroke:none;" d="M344.333 215.667L344.667 216.333L344.333 215.667z"/>
<path style="fill:#7b7b7b; stroke:none;" d="M423.667 217.333L424.333 217.667L423.667 217.333M210 218L210 219L214 219L210 218z"/>
<path style="fill:#b4b4b4; stroke:none;" d="M219 218L219 219L223 219L219 218z"/>
<path style="fill:#bdbdbd; stroke:none;" d="M212 226L213 226L219 224C216.12 222.341 212.772 222.398 212 226z"/>
<path style="fill:#828282; stroke:none;" d="M239.667 224.333L240.333 224.667L239.667 224.333z"/>
<path style="fill:#7b7b7b; stroke:none;" d="M367 225L367 226L371 226L367 225z"/>
<path style="fill:#adadad; stroke:none;" d="M208 226L208 227L212 227L208 226z"/>
<path style="fill:#626262; stroke:none;" d="M356.333 226.667L356.667 227.333L356.333 226.667z"/>
<path style="fill:#bdbdbd; stroke:none;" d="M349 228L349 232L350 232L349 228z"/>
<path style="fill:#4b4b4b; stroke:none;" d="M189 232L190 232L193 230C190.588 228.645 189.568 229.351 189 232z"/>
<path style="fill:#8b8b8b; stroke:none;" d="M202 229L202 230L206 230L202 229M356.333 229.667L356.667 230.333L356.333 229.667z"/>
<path style="fill:#b4b4b4; stroke:none;" d="M196 230L196 231L202 231L196 230z"/>
<path style="fill:#868686; stroke:none;" d="M218.333 230.667L218.667 231.333L218.333 230.667z"/>
<path style="fill:#ffffff; stroke:none;" d="M227 238C240.557 254.255 274.832 251.366 285 271L278 268L289 278L317 283L317 285L314 286L314 287L322 288C319.724 273.81 296.799 261.718 286 254.43C282.126 251.815 276.542 246.712 271.92 245.733C267.633 244.825 264.871 250.96 260.054 249.953C254.755 248.845 255.01 242.999 256 239L237.17 230.849L227 238z"/>
<path style="fill:#a2a2a2; stroke:none;" d="M240.667 231.333L241.333 231.667L240.667 231.333z"/>
<path style="fill:#666666; stroke:none;" d="M251 231L251 232L254 232L251 231M358.333 232.667L358.667 233.333L358.333 232.667z"/>
<path style="fill:#7b7b7b; stroke:none;" d="M196 233L196 236L197 236L196 233z"/>
<path style="fill:#747474; stroke:none;" d="M216.667 233.333L217.333 233.667L216.667 233.333z"/>
<path style="fill:#ffffff; stroke:none;" d="M200 242L207 243L207 245C201.887 246.599 195.817 247.053 193 252C200.022 252 217.72 248.33 220 256L231 254L236 257C230.887 266.744 212.107 266.976 203 266C205.16 275.955 214.124 288.055 219.429 297.039C221.563 300.654 226.052 305.334 225.873 309.806C225.666 315.012 221.201 311.164 219.934 308.976C215.35 301.063 209.929 294.801 207 286C200.644 287.079 201.487 291.89 203.174 297C206.206 306.186 216.702 312.201 216 322C208.859 318.081 201.438 301.56 194 314L198 311L214 329L214 331C205.531 331.709 202.779 318.882 194.229 321.323C191.449 322.116 190.874 325.33 192.758 327.402C196.437 331.45 208.663 339.61 214 340.682C221.876 342.264 229.197 335.268 234.441 330.476C238.937 326.367 244.931 325.114 249.701 321.637C253.275 319.033 255.428 314.753 259.09 312.005C264.045 308.284 271.445 307.961 272 301C262.914 302.167 262.373 296.115 254.715 294.657C246.432 293.081 246.642 306.529 248 311C235.405 310.308 240.108 300.947 243.931 293.715C249.585 283.016 250.482 272.623 263 267C261.136 261.173 254.656 260.287 249.87 257.38C238.983 250.77 228.295 241.956 216 237.956C209.236 235.755 202.492 233.228 200 242z"/>
<path style="fill:#747474; stroke:none;" d="M210 236L210 237L213 237L210 236z"/>
<path style="fill:#6d6d6d; stroke:none;" d="M359 236L359 240L360 240L359 236z"/>
<path style="fill:#626262; stroke:none;" d="M439.333 236.667L439.667 237.333L439.333 236.667z"/>
<path style="fill:#7b7b7b; stroke:none;" d="M214.667 237.333L215.333 237.667L214.667 237.333z"/>
<path style="fill:#575757; stroke:none;" d="M224 237L224 238L229 238L224 237z"/>
<path style="fill:#a5a5a5; stroke:none;" d="M440 238L440 241L441 241L440 238z"/>
<path style="fill:#4b4b4b; stroke:none;" d="M381 239L381 246L382 246L381 239z"/>
<path style="fill:#666666; stroke:none;" d="M199 240C199.796 243.716 202.637 243 206 243L206 242L199 240z"/>
<path style="fill:#f1f1f1; stroke:none;" d="M263 241L263 242L266 242L263 241z"/>
<path style="fill:#666666; stroke:none;" d="M388 241L388 244L389 244L388 241z"/>
<path style="fill:#bdbdbd; stroke:none;" d="M441 242L441 246L442 246L441 242z"/>
<path style="fill:#9c9c9c; stroke:none;" d="M206.333 243.667L206.667 244.333L206.333 243.667z"/>
<path style="fill:#575757; stroke:none;" d="M434 243L434 248L435 248L434 243z"/>
<path style="fill:#626262; stroke:none;" d="M189.333 244.667L189.667 245.333L189.333 244.667z"/>
<path style="fill:#969696; stroke:none;" d="M269.667 244.333L270.333 244.667L269.667 244.333z"/>
<path style="fill:#626262; stroke:none;" d="M268.333 245.667L268.667 246.333L268.333 245.667z"/>
<path style="fill:#929292; stroke:none;" d="M187.667 246.333L188.333 246.667L187.667 246.333M201 246L201 247L204 247L201 246z"/>
<path style="fill:#b4b4b4; stroke:none;" d="M381 246L381 250L382 250L381 246z"/>
<path style="fill:#747474; stroke:none;" d="M388 246L388 249L389 249L388 246z"/>
<path style="fill:#bdbdbd; stroke:none;" d="M350 247L350 254L351 254L350 247z"/>
<path style="fill:#a5a5a5; stroke:none;" d="M185 248L185 251L186 251L187 248L185 248z"/>
<path style="fill:#5c5c5c; stroke:none;" d="M275.667 248.333L276.333 248.667L275.667 248.333z"/>
<path style="fill:#7b7b7b; stroke:none;" d="M433.333 248.667L433.667 249.333L433.333 248.667z"/>
<path style="fill:#3f3f3f; stroke:none;" d="M440 248L440 252L441 252L440 248z"/>
<path style="fill:#929292; stroke:none;" d="M237.667 249.333L238.333 249.667L237.667 249.333z"/>
<path style="fill:#969696; stroke:none;" d="M248.667 249.333L249.333 249.667L248.667 249.333z"/>
<path style="fill:#c3c3c3; stroke:none;" d="M389 249L389 256L390 256L389 249z"/>
<path style="fill:#8b8b8b; stroke:none;" d="M216.667 250.333L217.333 250.667L216.667 250.333z"/>
<path style="fill:#5c5c5c; stroke:none;" d="M258 250L258 251L261 251L258 250z"/>
<path style="fill:#424242; stroke:none;" d="M192 251L194 256L192 251z"/>
<path style="fill:#cacaca; stroke:none;" d="M193 252L193 253L201 253L193 252z"/>
<path style="fill:#5c5c5c; stroke:none;" d="M201 252L201 253L206 253L201 252z"/>
<path style="fill:#b4b4b4; stroke:none;" d="M206 252L206 253L211 253L206 252z"/>
<path style="fill:#929292; stroke:none;" d="M432 254L432 260L433 260L432 254z"/>
<path style="fill:#575757; stroke:none;" d="M222 255L222 256L228 256L222 255z"/>
<path style="fill:#bdbdbd; stroke:none;" d="M253 255L253 257L255 257L255 255L253 255z"/>
<path style="fill:#666666; stroke:none;" d="M357 256L357 259L358 259L357 256z"/>
<path style="fill:#adadad; stroke:none;" d="M388 256L388 261L389 261L388 256z"/>
<path style="fill:#a5a5a5; stroke:none;" d="M235 257L235 260L236 260L235 257z"/>
<path style="fill:#e3e3e3; stroke:none;" d="M257 257C259.557 261.296 264.203 262.568 269 263L269 262L257 257z"/>
<path style="fill:#969696; stroke:none;" d="M182.667 258.333L183.333 258.667L182.667 258.333z"/>
<path style="fill:#575757; stroke:none;" d="M252 259L252 260L256 260L252 259z"/>
<path style="fill:#8b8b8b; stroke:none;" d="M284.333 260.667L284.667 261.333L284.333 260.667z"/>
<path style="fill:#010101; stroke:none;" d="M285 260L294 269C293.799 262.849 291.032 260.622 285 260z"/>
<path style="fill:#929292; stroke:none;" d="M380 260L380 263L381 263L380 260z"/>
<path style="fill:#9c9c9c; stroke:none;" d="M440 260L440 263L441 263L440 260z"/>
<path style="fill:#bdbdbd; stroke:none;" d="M193 261L193 262L196 264C196.951 261.493 195.348 261.294 193 261z"/>
<path style="fill:#747474; stroke:none;" d="M230 261L230 262L233 262L230 261z"/>
<path style="fill:#424242; stroke:none;" d="M261 261L265 263L265 262L261 261z"/>
<path style="fill:#575757; stroke:none;" d="M176 264L179 262L176 264z"/>
<path style="fill:#ffffff; stroke:none;" d="M170 287L192 288C191.214 280.86 191.616 279.57 199 281L196 262C184.573 263.8 170.362 274.795 170 287z"/>
<path style="fill:#747474; stroke:none;" d="M267.667 263.333L268.333 263.667L267.667 263.333M355 263L355 266L356 266L355 263z"/>
<path style="fill:#a5a5a5; stroke:none;" d="M431 265L431 268L432 268L431 265z"/>
<path style="fill:#747474; stroke:none;" d="M294 266L294 269L295 269L294 266z"/>
<path style="fill:#6d6d6d; stroke:none;" d="M214.667 267.333L215.333 267.667L214.667 267.333z"/>
<path style="fill:#868686; stroke:none;" d="M210 268L210 269L213 269L210 268z"/>
<path style="fill:#4b4b4b; stroke:none;" d="M169 271L172 270L169 271z"/>
<path style="fill:#6d6d6d; stroke:none;" d="M291 269L291 270L294 270L291 269z"/>
<path style="fill:#464646; stroke:none;" d="M196 270L196 274L197 274L196 270z"/>
<path style="fill:#7b7b7b; stroke:none;" d="M362.667 270.333L363.333 270.667L362.667 270.333z"/>
<path style="fill:#4b4b4b; stroke:none;" d="M344 272L344 277L345 277L344 272z"/>
<path style="fill:#747474; stroke:none;" d="M356 274L356 281L357 281L356 274z"/>
<path style="fill:#9c9c9c; stroke:none;" d="M424 274L424 277L425 277L424 274z"/>
<path style="fill:#868686; stroke:none;" d="M164.333 276.667L164.667 277.333L164.333 276.667z"/>
<path style="fill:#9c9c9c; stroke:none;" d="M199 277L198 282L199 277M280 277L280 279L284 279L284 277L280 277z"/>
<path style="fill:#666666; stroke:none;" d="M211 279L211 285L212 285L211 279z"/>
<path style="fill:#828282; stroke:none;" d="M317.333 279.667L317.667 280.333L317.333 279.667z"/>
<path style="fill:#a5a5a5; stroke:none;" d="M162 281L162 284L163 284L162 281z"/>
<path style="fill:#bdbdbd; stroke:none;" d="M296 282L300 284L296 282z"/>
<path style="fill:#626262; stroke:none;" d="M302 282L302 283L305 283L302 282M418.667 282.333L419.333 282.667L418.667 282.333z"/>
<path style="fill:#ffffff; stroke:none;" d="M278 285C280.737 286.449 284.003 287.435 284.381 291.019C284.988 296.768 275.881 303.584 282.329 308.338C283.861 309.468 285.47 309.295 286.488 307.663C290.911 300.567 301.021 284.537 284.998 284.022C282.498 283.942 280.369 284.3 278 285M299 284C300.499 286.083 302.743 288.273 302.574 291.039C302.334 294.982 298.66 297.675 296.998 301C291.393 312.22 288.08 327.125 276 333.135C271.109 335.568 263.105 340.276 258 337C247.379 339.318 231.262 362.154 231 373C224.643 375.172 223.165 385.077 222 391C241.252 386.886 261.514 370.97 278 360.631C284.178 356.757 293.381 353.034 294 345L297 345C297.449 338.149 298.979 323.64 304 319L301 341L312 332L308 324L315 324L307.132 313.981L306.87 305.17L303.582 297.251L313 299C310.597 290.453 308.633 285.453 299 284z"/>
<path style="fill:#8b8b8b; stroke:none;" d="M340.333 284.667L340.667 285.333L340.333 284.667z"/>
<path style="fill:#464646; stroke:none;" d="M204 285L204 286L207 289L208 289L208 285L204 285z"/>
<path style="fill:#6d6d6d; stroke:none;" d="M276 285L283 287L283 286L276 285z"/>
<path style="fill:#828282; stroke:none;" d="M322 285L322 288L323 288L322 285z"/>
<path style="fill:#666666; stroke:none;" d="M347 285L347 288L348 288L347 285z"/>
<path style="fill:#b4b4b4; stroke:none;" d="M177 286L177 287L188 287L177 286z"/>
<path style="fill:#4b4b4b; stroke:none;" d="M170 287L170 288L177 288L170 287z"/>
<path style="fill:#adadad; stroke:none;" d="M302 287L302 294L303 294L302 287z"/>
<path style="fill:#6d6d6d; stroke:none;" d="M307.667 287.333L308.333 287.667L307.667 287.333z"/>
<path style="fill:#626262; stroke:none;" d="M293.667 288.333L294.333 288.667L293.667 288.333M319 288L319 289L322 289L319 288z"/>
<path style="fill:#575757; stroke:none;" d="M295 289L295 294L296 294L295 289z"/>
<path style="fill:#f8f8f8; stroke:none;" d="M263 294L268 290L263 294z"/>
<path style="fill:#adadad; stroke:none;" d="M311 290L311 294L312 294L311 290z"/>
<path style="fill:#6d6d6d; stroke:none;" d="M317 294L318 294L320 292C317.86 290.882 317.473 291.749 317 294z"/>
<path style="fill:#cacaca; stroke:none;" d="M318 292L321 297L320 292L318 292z"/>
<path style="fill:#424242; stroke:none;" d="M166 293L166 294L171 294L166 293z"/>
<path style="fill:#8b8b8b; stroke:none;" d="M171 293L171 294L176 294L171 293z"/>
<path style="fill:#424242; stroke:none;" d="M202 293L202 298L203 298L202 293z"/>
<path style="fill:#929292; stroke:none;" d="M253.667 293.333L254.333 293.667L253.667 293.333z"/>
<path style="fill:#adadad; stroke:none;" d="M327 293L327 294L331 294L327 293z"/>
<path style="fill:#747474; stroke:none;" d="M404.667 293.333L405.333 293.667L404.667 293.333z"/>
<path style="fill:#9c9c9c; stroke:none;" d="M210 294L210 297L211 297L210 294z"/>
<path style="fill:#626262; stroke:none;" d="M218.333 294.667L218.667 295.333L218.333 294.667z"/>
<path style="fill:#9c9c9c; stroke:none;" d="M263.667 294.333L264.333 294.667L263.667 294.333z"/>
<path style="fill:#a2a2a2; stroke:none;" d="M312 294L312 298L313 298L312 294z"/>
<path style="fill:#666666; stroke:none;" d="M175 295L175 296L181 296L175 295z"/>
<path style="fill:#bdbdbd; stroke:none;" d="M302 296L302 297L306 297L302 296z"/>
<path style="fill:#747474; stroke:none;" d="M346 296L346 300L347 300L346 296z"/>
<path style="fill:#bdbdbd; stroke:none;" d="M240 298L239 302L240 302L240 298z"/>
<path style="fill:#747474; stroke:none;" d="M259.667 298.333L260.333 298.667L259.667 298.333M311.667 299.333L312.333 299.667L311.667 299.333z"/>
<path style="fill:#bdbdbd; stroke:none;" d="M162 300L162 304L163 304L162 300z"/>
<path style="fill:#666666; stroke:none;" d="M272 301L272 305L273 305L272 301z"/>
<path style="fill:#6d6d6d; stroke:none;" d="M238.333 302.667L238.667 303.333L238.333 302.667z"/>
<path style="fill:#8b8b8b; stroke:none;" d="M246.333 302.667L246.667 303.333L246.333 302.667z"/>
<path style="fill:#a2a2a2; stroke:none;" d="M264 302L264 303L268 303L264 302z"/>
<path style="fill:#9c9c9c; stroke:none;" d="M295 303L295 307L296 307L295 303z"/>
<path style="fill:#464646; stroke:none;" d="M327 304L326 310L327 310L327 304z"/>
<path style="fill:#828282; stroke:none;" d="M163.333 305.667L163.667 306.333L163.333 305.667z"/>
<path style="fill:#a2a2a2; stroke:none;" d="M366 306L366 307L380 307L366 306z"/>
<path style="fill:#828282; stroke:none;" d="M267.667 307.333L268.333 307.667L267.667 307.333z"/>
<path style="fill:#969696; stroke:none;" d="M220 308L220 311L221 311L220 308z"/>
<path style="fill:#8b8b8b; stroke:none;" d="M226 309L226 312L227 312L226 309M313 309L313 313L314 313L313 309z"/>
<path style="fill:#ffffff; stroke:none;" d="M314 309L314 314L320 312L314 309z"/>
<path style="fill:#626262; stroke:none;" d="M284.667 310.333L285.333 310.667L284.667 310.333z"/>
<path style="fill:#747474; stroke:none;" d="M306 310L306 315L307 315L306 310z"/>
<path style="fill:#a2a2a2; stroke:none;" d="M318 310L318 311L324 311L318 310z"/>
<path style="fill:#747474; stroke:none;" d="M352 310L352 311L357 311L352 310z"/>
<path style="fill:#4b4b4b; stroke:none;" d="M198 313L201 312L198 313z"/>
<path style="fill:#747474; stroke:none;" d="M363 311L363 312L367 312L363 311z"/>
<path style="fill:#868686; stroke:none;" d="M344.667 312.333L345.333 312.667L344.667 312.333z"/>
<path style="fill:#626262; stroke:none;" d="M193 313L196 315L196 314L193 313z"/>
<path style="fill:#575757; stroke:none;" d="M222 313L222 314L225 314L222 313z"/>
<path style="fill:#626262; stroke:none;" d="M256.333 313.667L256.667 314.333L256.333 313.667z"/>
<path style="fill:#adadad; stroke:none;" d="M327 313L327 315L330 315L330 313L327 313z"/>
<path style="fill:#626262; stroke:none;" d="M346.333 313.667L346.667 314.333L346.333 313.667z"/>
<path style="fill:#ffffff; stroke:none;" d="M263 314L257 328C265.034 327.127 272.867 319.262 263 314z"/>
<path style="fill:#9c9c9c; stroke:none;" d="M342 315L342 316L346 316L342 315z"/>
<path style="fill:#adadad; stroke:none;" d="M173 316L173 320L174 320L173 316z"/>
<path style="fill:#6d6d6d; stroke:none;" d="M287 316L287 321L288 321L287 316z"/>
<path style="fill:#868686; stroke:none;" d="M339 318L339 321L340 321L339 318z"/>
<path style="fill:#4b4b4b; stroke:none;" d="M187 319L187 322L189 322L189 319L187 319z"/>
<path style="fill:#ffffff; stroke:none;" d="M262 331L262 332C271.125 331.279 281.032 329.666 282 319L262 331z"/>
<path style="fill:#b9b9b9; stroke:none;" d="M192 320L192 321L196 321L192 320z"/>
<path style="fill:#626262; stroke:none;" d="M269.333 320.667L269.667 321.333L269.333 320.667z"/>
<path style="fill:#7b7b7b; stroke:none;" d="M301.333 320.667L301.667 321.333L301.333 320.667z"/>
<path style="fill:#adadad; stroke:none;" d="M331 320L331 325L332 325L333 320L331 320z"/>
<path style="fill:#969696; stroke:none;" d="M334.667 320.333L335.333 320.667L334.667 320.333z"/>
<path style="fill:#4b4b4b; stroke:none;" d="M323 321L323 324L325 321L323 321z"/>
<path style="fill:#9c9c9c; stroke:none;" d="M256 323L256 328L257 328L256 323z"/>
<path style="fill:#747474; stroke:none;" d="M281.333 323.667L281.667 324.333L281.333 323.667z"/>
<path style="fill:#bdbdbd; stroke:none;" d="M300 323L300 327L301 327L300 323z"/>
<path style="fill:#9c9c9c; stroke:none;" d="M286.333 324.667L286.667 325.333L286.333 324.667z"/>
<path style="fill:#7b7b7b; stroke:none;" d="M303 324L303 330L304 330L303 324z"/>
<path style="fill:#828282; stroke:none;" d="M312.667 324.333L313.333 324.667L312.667 324.333z"/>
<path style="fill:#333333; stroke:none;" d="M319 324L317 329L321 324L319 324z"/>
<path style="fill:#5c5c5c; stroke:none;" d="M196 329L196 330L199 330L196 329z"/>
<path style="fill:#7b7b7b; stroke:none;" d="M213.333 329.667L213.667 330.333L213.333 329.667z"/>
<path style="fill:#626262; stroke:none;" d="M312.333 329.667L312.667 330.333L312.333 329.667z"/>
<path style="fill:#666666; stroke:none;" d="M182.667 330.333L183.333 330.667L182.667 330.333z"/>
<path style="fill:#828282; stroke:none;" d="M199 330L199 333L200 333L199 330z"/>
<path style="fill:#747474; stroke:none;" d="M180 331L180 334L181 334L180 331z"/>
<path style="fill:#ffffff; stroke:none;" d="M181 331C173.588 347.564 186.214 341.606 197 339C193.182 334.438 186.865 331.763 181 331M230 357C238.268 354.746 247.777 339.108 250 331C241.907 331.096 239.466 337.08 232.985 340.982C230.811 342.291 226.513 343.536 225.748 346.275C224.826 349.574 228.849 354.003 230 357z"/>
<path style="fill:#adadad; stroke:none;" d="M266 331L266 332L270 332L266 331z"/>
<path style="fill:#6d6d6d; stroke:none;" d="M186.667 332.333L187.333 332.667L186.667 332.333z"/>
<path style="fill:#a2a2a2; stroke:none;" d="M263 332L263 333L266 333L263 332z"/>
<path style="fill:#9c9c9c; stroke:none;" d="M188 333L188 334L192 334L188 333z"/>
<path style="fill:#ffffff; stroke:none;" d="M315 334C300.86 354.21 276.065 369.597 254 379.772C245.331 383.77 222.321 391.09 219 400L249 399.87L264.996 395.612L275.039 399.852L303 400C301.454 393.885 302.235 390.26 308 387L308 385L297 374C305.475 371.631 306.84 377.672 312.325 382.687C319.093 388.875 326.06 388.774 322 400L326 400L326 396C334.089 394.607 345.358 379.6 348.25 372C349.572 368.526 347.002 366.998 350 364C345.849 362.246 340.901 362.305 337.004 360.062C328.857 355.371 320.516 342.551 317 334L315 334z"/>
<path style="fill:#4b4b4b; stroke:none;" d="M227 335L227 336L231 336L227 335z"/>
<path style="fill:#8b8b8b; stroke:none;" d="M270.667 335.333L271.333 335.667L270.667 335.333z"/>
<path style="fill:#666666; stroke:none;" d="M166 336L166 340L167 340L166 336z"/>
<path style="fill:#747474; stroke:none;" d="M262 337L262 338L266 338L262 337z"/>
<path style="fill:#7b7b7b; stroke:none;" d="M258 338L258 339L262 339L258 338z"/>
<path style="fill:#bdbdbd; stroke:none;" d="M297 339L297 344L298 344L297 339z"/>
<path style="fill:#666666; stroke:none;" d="M188 340L188 341L192 341L188 340M219 340L219 341L222 341L219 340z"/>
<path style="fill:#8b8b8b; stroke:none;" d="M224.333 346.667L224.667 347.333L224.333 346.667z"/>
<path style="fill:#a2a2a2; stroke:none;" d="M198 347L198 351L199 351L198 347z"/>
<path style="fill:#5c5c5c; stroke:none;" d="M186 348L186 349L190 349L186 348z"/>
<path style="fill:#a2a2a2; stroke:none;" d="M244.333 349.667L244.667 350.333L244.333 349.667z"/>
<path style="fill:#929292; stroke:none;" d="M352.667 349.333L353.333 349.667L352.667 349.333z"/>
<path style="fill:#6d6d6d; stroke:none;" d="M174 350L174 351L180 351L174 350z"/>
<path style="fill:#7b7b7b; stroke:none;" d="M212.667 350.333L213.333 350.667L212.667 350.333z"/>
<path style="fill:#b9b9b9; stroke:none;" d="M199 351L199 352L206 352L199 351z"/>
<path style="fill:#424242; stroke:none;" d="M206 351L206 352L211 352L206 351z"/>
<path style="fill:#8b8b8b; stroke:none;" d="M219.333 351.667L219.667 352.333L219.333 351.667z"/>
<path style="fill:#9c9c9c; stroke:none;" d="M356.667 351.333L357.333 351.667L356.667 351.333z"/>
<path style="fill:#8b8b8b; stroke:none;" d="M229.333 354.667L229.667 355.333L229.333 354.667z"/>
<path style="fill:#a2a2a2; stroke:none;" d="M230.667 357.333L231.333 357.667L230.667 357.333z"/>
<path style="fill:#515151; stroke:none;" d="M224 358L224 366L225 366L224 358z"/>
<path style="fill:#747474; stroke:none;" d="M336 360L336 361L339 361L336 360z"/>
<path style="fill:#666666; stroke:none;" d="M276.667 361.333L277.333 361.667L276.667 361.333z"/>
<path style="fill:#4b4b4b; stroke:none;" d="M340 361L340 362L344 362L340 361z"/>
<path style="fill:#747474; stroke:none;" d="M346 362L346 363L349 363L346 362z"/>
<path style="fill:#575757; stroke:none;" d="M349 363L347 365L347 366L351 367L349 363z"/>
<path style="fill:#4b4b4b; stroke:none;" d="M200 365L200 366L212 366L200 365z"/>
<path style="fill:#464646; stroke:none;" d="M194 367L194 368L199 367L194 367z"/>
<path style="fill:#010101; stroke:none;" d="M174 381L181 384C185.554 377.246 192.983 372.32 201 370.477C205.903 369.349 214.231 372.047 216 366C202.851 366 181.136 367.572 174 381z"/>
<path style="fill:#9c9c9c; stroke:none;" d="M358 369L359 369L361 367C358.86 365.882 358.473 366.749 358 369z"/>
<path style="fill:#969696; stroke:none;" d="M223.333 369.667L223.667 370.333L223.333 369.667z"/>
<path style="fill:#747474; stroke:none;" d="M230.333 369.667L230.667 370.333L230.333 369.667z"/>
<path style="fill:#626262; stroke:none;" d="M349.333 369.667L349.667 370.333L349.333 369.667z"/>
<path style="fill:#969696; stroke:none;" d="M379.333 369.667L379.667 370.333L379.333 369.667z"/>
<path style="fill:#5c5c5c; stroke:none;" d="M359.333 370.667L359.667 371.333L359.333 370.667z"/>
<path style="fill:#969696; stroke:none;" d="M184 372L184 373L187 373L184 372z"/>
<path style="fill:#4b4b4b; stroke:none;" d="M300 372L300 373L304 373L300 372z"/>
<path style="fill:#969696; stroke:none;" d="M266.667 373.333L267.333 373.667L266.667 373.333z"/>
<path style="fill:#929292; stroke:none;" d="M264.667 374.333L265.333 374.667L264.667 374.333z"/>
<path style="fill:#7b7b7b; stroke:none;" d="M366 375L366 378L367 378L366 375z"/>
<path style="fill:#626262; stroke:none;" d="M177.667 376.333L178.333 376.667L177.667 376.333z"/>
<path style="fill:#6d6d6d; stroke:none;" d="M199.333 377.667L199.667 378.333L199.333 377.667z"/>
<path style="fill:#929292; stroke:none;" d="M343.333 378.667L343.667 379.333L343.333 378.667z"/>
<path style="fill:#7b7b7b; stroke:none;" d="M224 380L224 383L225 383L224 380M218 381L218 384L219 384L218 381M303.333 381.667L303.667 382.333L303.333 381.667z"/>
<path style="fill:#929292; stroke:none;" d="M175.667 382.333L176.333 382.667L175.667 382.333z"/>
<path style="fill:#868686; stroke:none;" d="M383.667 384.333L384.333 384.667L383.667 384.333z"/>
<path style="fill:#4b4b4b; stroke:none;" d="M216 386L216 393L217 393L216 386z"/>
<path style="fill:#9c9c9c; stroke:none;" d="M222 386L222 389L223 389L222 386z"/>
<path style="fill:#828282; stroke:none;" d="M376.333 387.667L376.667 388.333L376.333 387.667z"/>
<path style="fill:#6d6d6d; stroke:none;" d="M322.333 388.667L322.667 389.333L322.333 388.667z"/>
<path style="fill:#868686; stroke:none;" d="M234 389L234 390L237 390L234 389z"/>
<path style="fill:#747474; stroke:none;" d="M232.667 390.333L233.333 390.667L232.667 390.333z"/>
<path style="fill:#a5a5a5; stroke:none;" d="M378.333 391.667L378.667 392.333L378.333 391.667z"/>
<path style="fill:#666666; stroke:none;" d="M308.667 393.333L309.333 393.667L308.667 393.333z"/>
<path style="fill:#6d6d6d; stroke:none;" d="M174 394L174 395L177 395L174 394z"/>
<path style="fill:#f8f8f8; stroke:none;" d="M308 394C310.329 398.15 315.054 400.859 317 395L311 397L308 394z"/>
<path style="fill:#747474; stroke:none;" d="M209.667 396.333L210.333 396.667L209.667 396.333z"/>
<path style="fill:#b4b4b4; stroke:none;" d="M326 396L326 400L327 400L326 396z"/>
<path style="fill:#ffffff; stroke:none;" d="M389 397L393 400L389 397z"/>
<path style="fill:#a2a2a2; stroke:none;" d="M312 399L312 400L316 400L312 399z"/>
<path style="fill:#ffffff; stroke:none;" d="M57 423L70 480L88 480L97 445L98 445C99.964 453.567 101.969 471.908 107.934 478.397C110.431 481.112 122.422 481.299 124.836 478.397C127.725 474.921 127.888 467.318 128.881 463C131.94 449.697 134.305 436.142 138 423L121 423L115 453L114 453C113.132 442.368 110.373 423.02 98 423C95.2662 422.996 91.0127 422.299 88.9846 424.603C83.2911 431.072 82.1341 446.755 80 455L79 455L74 423L57 423M138 480C147.722 480 157.39 482.882 159 471L176.722 472.028L183.225 479.682L200 480L180 423L156.702 424.028L150.576 440L138 480M205 423L205 480L222 480L222 449L223 449C226.845 457.127 235.253 474.459 243.184 478.972C247.517 481.438 255.15 480 260 480L260 423L243 423L243 454L221.79 424.028L205 423M268 423L268 436L286 436L286 480L304 480L304 436L322 436L322 423L268 423M330 423L330 480L378 480L378 467L348 467L348 456L375 456L375 443L348 443L348 436L377 436L377 423L330 423M388 423L388 480C400.413 480 419.047 483.35 429.999 476.272C445.21 466.442 445.209 434.974 428.985 426.046C417.757 419.868 400.417 423 388 423z"/>
<path style="fill:#747474; stroke:none;" d="M57.3333 424.667L57.6667 425.333L57.3333 424.667M137.333 424.667L137.667 425.333L137.333 424.667M74 427L74 430L75 430L74 427z"/>
<path style="fill:#9c9c9c; stroke:none;" d="M87.3333 427.667L87.6667 428.333L87.3333 427.667z"/>
<path style="fill:#969696; stroke:none;" d="M107.333 427.667L107.667 428.333L107.333 427.667M120.333 427.667L120.667 428.333L120.333 427.667z"/>
<path style="fill:#8b8b8b; stroke:none;" d="M58 428L58 431L59 431L58 428M136 428L136 431L137 431L136 428z"/>
<path style="fill:#7b7b7b; stroke:none;" d="M119.333 431.667L119.667 432.333L119.333 431.667z"/>
<path style="fill:#6d6d6d; stroke:none;" d="M75 432L75 435L76 435L75 432z"/>
<path style="fill:#666666; stroke:none;" d="M59.3333 433.667L59.6667 434.333L59.3333 433.667z"/>
<path style="fill:#6d6d6d; stroke:none;" d="M135.333 433.667L135.667 434.333L135.333 433.667z"/>
<path style="fill:#929292; stroke:none;" d="M85.3333 434.667L85.6667 435.333L85.3333 434.667z"/>
<path style="fill:#9c9c9c; stroke:none;" d="M118.333 436.667L118.667 437.333L118.333 436.667z"/>
<path style="fill:#010101; stroke:none;" d="M406 436L406 467C410.507 467 415.972 467.646 419.581 464.347C425.206 459.205 424.729 443.372 418.786 438.703C415.165 435.857 410.35 436.012 406 436z"/>
<path style="fill:#828282; stroke:none;" d="M60.3333 437.667L60.6667 438.333L60.3333 437.667z"/>
<path style="fill:#666666; stroke:none;" d="M76 437L76 440L77 440L76 437z"/>
<path style="fill:#868686; stroke:none;" d="M134 437L134 440L135 440L134 437z"/>
<path style="fill:#010101; stroke:none;" d="M168 438L164 457L174 457L168 438z"/>
<path style="fill:#a2a2a2; stroke:none;" d="M439.333 439.667L439.667 440.333L439.333 439.667z"/>
<path style="fill:#828282; stroke:none;" d="M117.333 440.667L117.667 441.333L117.333 440.667z"/>
<path style="fill:#5c5c5c; stroke:none;" d="M167.333 440.667L167.667 441.333L167.333 440.667z"/>
<path style="fill:#626262; stroke:none;" d="M61.3333 442.667L61.6667 443.333L61.3333 442.667z"/>
<path style="fill:#666666; stroke:none;" d="M133.333 442.667L133.667 443.333L133.333 442.667z"/>
<path style="fill:#929292; stroke:none;" d="M77.3333 443.667L77.6667 444.333L77.3333 443.667z"/>
<path style="fill:#b9b9b9; stroke:none;" d="M440 443L440 447L441 447L440 443z"/>
<path style="fill:#a2a2a2; stroke:none;" d="M116.333 445.667L116.667 446.333L116.333 445.667z"/>
<path style="fill:#7b7b7b; stroke:none;" d="M62.3333 446.667L62.6667 447.333L62.3333 446.667z"/>
<path style="fill:#828282; stroke:none;" d="M132.333 446.667L132.667 447.333L132.333 446.667z"/>
<path style="fill:#626262; stroke:none;" d="M171.333 446.667L171.667 447.333L171.333 446.667z"/>
<path style="fill:#8b8b8b; stroke:none;" d="M78 448L78 451L79 451L78 448z"/>
<path style="fill:#868686; stroke:none;" d="M115.333 449.667L115.667 450.333L115.333 449.667z"/>
<path style="fill:#6d6d6d; stroke:none;" d="M95.3333 450.667L95.6667 451.333L95.3333 450.667z"/>
<path style="fill:#666666; stroke:none;" d="M99.3333 450.667L99.6667 451.333L99.3333 450.667z"/>
<path style="fill:#626262; stroke:none;" d="M131.333 451.667L131.667 452.333L131.333 451.667z"/>
<path style="fill:#6d6d6d; stroke:none;" d="M164.333 451.667L164.667 452.333L164.333 451.667z"/>
<path style="fill:#868686; stroke:none;" d="M80 452L79 455L80 452z"/>
<path style="fill:#6d6d6d; stroke:none;" d="M64.3333 455.667L64.6667 456.333L64.3333 455.667z"/>
<path style="fill:#7b7b7b; stroke:none;" d="M130.333 455.667L130.667 456.333L130.333 455.667z"/>
<path style="fill:#626262; stroke:none;" d="M163.333 455.667L163.667 456.333L163.333 455.667z"/>
<path style="fill:#6d6d6d; stroke:none;" d="M101.333 457.667L101.667 458.333L101.333 457.667z"/>
<path style="fill:#969696; stroke:none;" d="M440 457L440 460L441 460L440 457z"/>
<path style="fill:#8b8b8b; stroke:none;" d="M65.3333 459.667L65.6667 460.333L65.3333 459.667z"/>
<path style="fill:#5c5c5c; stroke:none;" d="M129.333 460.667L129.667 461.333L129.333 460.667z"/>
<path style="fill:#666666; stroke:none;" d="M66.3333 464.667L66.6667 465.333L66.3333 464.667z"/>
<path style="fill:#7b7b7b; stroke:none;" d="M128.333 464.667L128.667 465.333L128.333 464.667z"/>
<path style="fill:#828282; stroke:none;" d="M67.3333 468.667L67.6667 469.333L67.3333 468.667z"/>
<path style="fill:#575757; stroke:none;" d="M90.3333 468.667L90.6667 469.333L90.3333 468.667M127.333 469.667L127.667 470.333L127.333 469.667z"/>
<path style="fill:#626262; stroke:none;" d="M68.3333 473.667L68.6667 474.333L68.3333 473.667z"/>
<path style="fill:#747474; stroke:none;" d="M126.333 473.667L126.667 474.333L126.333 473.667z"/>
<path style="fill:#626262; stroke:none;" d="M88.3333 475.667L88.6667 476.333L88.3333 475.667z"/>
<path style="fill:#747474; stroke:none;" d="M69 477L69 480L70 480L69 477z"/>
</svg>
